# xmcd
#
# Track frame offsets:
#	150
#	9744
#	20558
#	33719
#	44373
#	53986
#	60633
#	75172
#	85927
#	99026
#	107336
#	118238
#	130929
#	147482
#	159174
#
# Disc length: 2203 seconds
#
# Revision: 0
# Processed by: cddbd v1.5.2PL0 Copyright (c) Steve Scherf et al.
# Submitted via: EasyCDDAExtractor 12.0.1.1
#
DISCID=ba08990f
DTITLE=Johnny Cash - Children's Album
DYEAR=2006
DGENRE=Country
TTITLE0=Nasty Dan
TTITLE1=One And One Makes Two
TTITLE2=I Got A Boy And His Name Is John
TTITLE3=Little Magic Glasses
TTITLE4=Miss Tara
TTITLE5=Dinosaur Song
TTITLE6=Tiger Whitehead
TTITLE7=There's A Bear In The Woods
TTITLE8=Call Of The Wild
TTITLE9=Little Green Fountain
TTITLE10=Old Shep
TTITLE11=(The) Timber Man
TTITLE12=Grandfather's Clock
TTITLE13=Ah Bos Cee Dah
TTITLE14=Why Is A Fire Engine Red
EXTD=
EXTT0=
EXTT1=
EXTT2=
EXTT3=
EXTT4=
EXTT5=
EXTT6=
EXTT7=
EXTT8=
EXTT9=
EXTT10=
EXTT11=
EXTT12=
EXTT13=
EXTT14=
PLAYORDER=
